# xmcd CD database file generated by Grip 3.0.4
# 
# Track frame offsets:
#       182
#       21952
#       41702
#       65037
#       85472
#       108830
#       127420
#       145467
#       172887
#       189410
#       209035
# 
# Disc length: 3017 seconds
# 
# Revision: 3
# Processed by: cddbd v1.5PL3 Copyright (c) Steve Scherf et al.
# Submitted via: Grip 3.0.4
# 
DISCID=ab0bc70b
DTITLE=Tone Loc - Loc-Ed After Dark
DYEAR=1989
DGENRE=Hip-Hop
TTITLE0=On Fire (Remix)
TTITLE1=Wild Thing
TTITLE2=Loc'Ed After Dark
TTITLE3=I Got It Goin' On
TTITLE4=Cutting Rhythms
TTITLE5=Funky Cold Medina
TTITLE6=Next Episode
TTITLE7=Cheeba Cheeba
TTITLE8=Don't Get Close
TTITLE9=Loc'In On The Shaw
TTITLE10=The Homies
EXTD=\n\nYEAR: 2000  ID3G:   0
EXTT0=
EXTT1=
EXTT2=
EXTT3=
EXTT4=
EXTT5=
EXTT6=
EXTT7=
EXTT8=
EXTT9=
EXTT10=
PLAYORDER=
